<svg width="12" height="14" fill="none" xmlns="http://www.w3.org/2000/svg"><path fill-rule="evenodd" clip-rule="evenodd" d="M6 1.167a4.667 4.667 0 0 0-4.667 4.666c0 1.808 1.176 3.561 2.466 4.922A17.178 17.178 0 0 0 6 12.701a17.178 17.178 0 0 0 2.202-1.946c1.289-1.36 2.465-3.114 2.465-4.922A4.667 4.667 0 0 0 6 1.167zm0 12.25-.324.485-.001-.001-.004-.003-.014-.009-.048-.033c-.041-.029-.101-.07-.176-.125a18.327 18.327 0 0 1-2.481-2.174C1.616 10.147.167 8.11.167 5.833a5.833 5.833 0 0 1 11.666 0c0 2.276-1.449 4.315-2.784 5.724a18.328 18.328 0 0 1-2.658 2.299l-.048.033-.013.01-.004.002h-.002L6 13.418zm0 0 .324.485a.584.584 0 0 1-.648 0L6 13.417z" fill="#fff"/></svg>